<svg width="13" height="14" viewBox="0 0 13 14" fill="none" xmlns="http://www.w3.org/2000/svg">
<g clip-path="url(#clip0_98_679)">
<path d="M4.15625 0.65625C4.15625 0.292578 3.86367 0 3.5 0C3.13633 0 2.84375 0.292578 2.84375 0.65625V1.75H1.75C0.784766 1.75 0 2.53477 0 3.5V3.9375V5.25V12.25C0 13.2152 0.784766 14 1.75 14H10.5C11.4652 14 12.25 13.2152 12.25 12.25V5.25V3.9375V3.5C12.25 2.53477 11.4652 1.75 10.5 1.75H9.40625V0.65625C9.40625 0.292578 9.11367 0 8.75 0C8.38633 0 8.09375 0.292578 8.09375 0.65625V1.75H4.15625V0.65625ZM1.3125 5.25H10.9375V12.25C10.9375 12.4906 10.7406 12.6875 10.5 12.6875H1.75C1.50937 12.6875 1.3125 12.4906 1.3125 12.25V5.25Z" fill="white"/>
</g>
<defs>
<clipPath id="clip0_98_679">
<rect width="12.25" height="14" fill="white"/>
</clipPath>
</defs>
</svg>
