<svg width="26" height="26" viewBox="0 0 26 26" fill="none" xmlns="http://www.w3.org/2000/svg">
<path fill-rule="evenodd" clip-rule="evenodd" d="M15.1667 9.20833C14.8675 9.20833 14.625 8.96583 14.625 8.66667V4.33333H7.58332C6.985 4.33333 6.49999 4.81836 6.49999 5.41667V20.5833C6.49999 21.1817 6.985 21.6667 7.58332 21.6667H18.4167C19.015 21.6667 19.5 21.1817 19.5 20.5833V9.20833H15.1667ZM20.5833 8.66667V20.5833C20.5833 21.7799 19.6132 22.75 18.4167 22.75H7.58332C6.38673 22.75 5.41666 21.7799 5.41666 20.5833V5.41667C5.41666 4.22005 6.38673 3.25 7.58332 3.25H15.1667L20.5833 8.66667ZM15.7083 5.32373L18.5096 8.125H15.7083V5.32373Z" fill="white"/>
<path fill-rule="evenodd" clip-rule="evenodd" d="M7.58334 17.8749C7.58334 17.5758 7.82585 17.3333 8.12501 17.3333H17.875C18.1742 17.3333 18.4167 17.5758 18.4167 17.8749C18.4167 18.1741 18.1742 18.4166 17.875 18.4166H8.12501C7.82585 18.4166 7.58334 18.1741 7.58334 17.8749Z" fill="white"/>
<path fill-rule="evenodd" clip-rule="evenodd" d="M7.58334 20.0417C7.58334 19.7425 7.82585 19.5 8.12501 19.5H14.625C14.9242 19.5 15.1667 19.7425 15.1667 20.0417C15.1667 20.3408 14.9242 20.5833 14.625 20.5833H8.12501C7.82585 20.5833 7.58334 20.3408 7.58334 20.0417Z" fill="white"/>
<path fill-rule="evenodd" clip-rule="evenodd" d="M10.8333 8.66675C11.052 8.66675 11.2492 8.79821 11.3334 9.00009L14.0417 15.5001C14.1567 15.7762 14.0261 16.0934 13.75 16.2084C13.4739 16.3235 13.1568 16.1929 13.0417 15.9167L10.8333 10.6167L8.62502 15.9167C8.50997 16.1929 8.19282 16.3235 7.91668 16.2084C7.64054 16.0934 7.50994 15.7762 7.62499 15.5001L10.3333 9.00009C10.4174 8.79821 10.6147 8.66675 10.8333 8.66675Z" fill="white"/>
<path fill-rule="evenodd" clip-rule="evenodd" d="M8.66666 13.5417H13V14.6251H8.66666V13.5417Z" fill="white"/>
<path fill-rule="evenodd" clip-rule="evenodd" d="M16.25 11.9167C16.5492 11.9167 16.7917 12.1593 16.7917 12.4584V15.7084C16.7917 16.0076 16.5492 16.2501 16.25 16.2501C15.9508 16.2501 15.7083 16.0076 15.7083 15.7084V12.4584C15.7083 12.1593 15.9508 11.9167 16.25 11.9167Z" fill="white"/>
<path fill-rule="evenodd" clip-rule="evenodd" d="M14.0833 14.0834C14.0833 13.7843 14.3258 13.5417 14.625 13.5417H17.875C18.1742 13.5417 18.4167 13.7843 18.4167 14.0834C18.4167 14.3826 18.1742 14.6251 17.875 14.6251H14.625C14.3258 14.6251 14.0833 14.3826 14.0833 14.0834Z" fill="white"/>
</svg>
