<svg width="18" height="18" viewBox="0 0 18 18" fill="none" xmlns="http://www.w3.org/2000/svg">
<g clip-path="url(#clip0_98_631)">
<path d="M17.434 5.85703C17.5465 6.16289 17.4516 6.50391 17.209 6.72187L15.6867 8.10703C15.7254 8.39883 15.7465 8.69766 15.7465 9C15.7465 9.30234 15.7254 9.60117 15.6867 9.89297L17.209 11.2781C17.4516 11.4961 17.5465 11.8371 17.434 12.143C17.2793 12.5613 17.093 12.9621 16.8785 13.3488L16.7133 13.6336C16.4813 14.0203 16.2211 14.3859 15.9363 14.7305C15.7289 14.9836 15.3844 15.068 15.075 14.9695L13.1168 14.3473C12.6457 14.7094 12.1254 15.0117 11.5699 15.2402L11.1305 17.2477C11.0602 17.5676 10.8141 17.8207 10.4906 17.8734C10.0055 17.9543 9.50625 17.9965 8.99649 17.9965C8.48672 17.9965 7.9875 17.9543 7.50235 17.8734C7.17891 17.8207 6.93282 17.5676 6.8625 17.2477L6.42305 15.2402C5.86758 15.0117 5.34727 14.7094 4.87617 14.3473L2.92149 14.973C2.61211 15.0715 2.26758 14.9836 2.06016 14.734C1.77539 14.3895 1.51524 14.0238 1.28321 13.6371L1.11797 13.3523C0.903519 12.9656 0.71719 12.5648 0.562503 12.1465C0.450003 11.8406 0.544925 11.4996 0.787503 11.2816L2.30977 9.89648C2.2711 9.60117 2.25 9.30234 2.25 9C2.25 8.69766 2.2711 8.39883 2.30977 8.10703L0.787503 6.72187C0.544925 6.50391 0.450003 6.16289 0.562503 5.85703C0.71719 5.43867 0.903519 5.03789 1.11797 4.65117L1.28321 4.36641C1.51524 3.97969 1.77539 3.61406 2.06016 3.26953C2.26758 3.01641 2.61211 2.93203 2.92149 3.03047L4.87969 3.65273C5.35078 3.29063 5.8711 2.98828 6.42657 2.75977L6.86602 0.752344C6.93633 0.432422 7.18242 0.179297 7.50586 0.126562C7.99102 0.0421875 8.49024 0 9 0C9.50977 0 10.009 0.0421875 10.4941 0.123047C10.8176 0.175781 11.0637 0.428906 11.134 0.748828L11.5734 2.75625C12.1289 2.98477 12.6492 3.28711 13.1203 3.64922L15.0785 3.02695C15.3879 2.92852 15.7324 3.01641 15.9398 3.26602C16.2246 3.61055 16.4848 3.97617 16.7168 4.36289L16.882 4.64766C17.0965 5.03437 17.2828 5.43516 17.4375 5.85352L17.434 5.85703ZM9 11.8125C9.74592 11.8125 10.4613 11.5162 10.9887 10.9887C11.5162 10.4613 11.8125 9.74592 11.8125 9C11.8125 8.25408 11.5162 7.53871 10.9887 7.01126C10.4613 6.48382 9.74592 6.1875 9 6.1875C8.25408 6.1875 7.53871 6.48382 7.01126 7.01126C6.48382 7.53871 6.1875 8.25408 6.1875 9C6.1875 9.74592 6.48382 10.4613 7.01126 10.9887C7.53871 11.5162 8.25408 11.8125 9 11.8125Z" fill="white"/>
</g>
<defs>
<clipPath id="clip0_98_631">
<rect width="18" height="18" fill="white"/>
</clipPath>
</defs>
</svg>
