<svg width="17" height="18" viewBox="0 0 17 18" fill="none" xmlns="http://www.w3.org/2000/svg">
<path d="M16.3753 9.39905C16.3753 10.0006 15.9487 10.4718 15.4653 10.4718H14.5552L14.5751 15.8253C14.5751 15.9155 14.5694 16.0057 14.5609 16.0959V16.6373C14.5609 17.3758 14.0518 17.974 13.4233 17.974H12.9683C12.937 17.974 12.9057 17.974 12.8744 17.9707C12.8346 17.974 12.7948 17.974 12.755 17.974L11.8307 17.9707H11.1481C10.5196 17.9707 10.0106 17.3725 10.0106 16.634V15.8319V13.6932C10.0106 13.1017 9.60388 12.6239 9.1005 12.6239H7.28038C6.777 12.6239 6.37031 13.1017 6.37031 13.6932V15.8319V16.634C6.37031 17.3725 5.86125 17.9707 5.23274 17.9707H4.55019H3.64297C3.60031 17.9707 3.55765 17.9673 3.51499 17.964C3.48086 17.9673 3.44674 17.9707 3.41261 17.9707H2.95758C2.32907 17.9707 1.82 17.3725 1.82 16.634V12.8912C1.82 12.8611 1.82 12.8277 1.82284 12.7976V10.4684H0.912779C0.400869 10.4684 0.00271606 10.0006 0.00271606 9.39571C0.00271606 9.09495 0.0880345 8.82761 0.287111 8.59368L7.57615 1.12818C7.77522 0.894257 8.00274 0.86084 8.20182 0.86084C8.40089 0.86084 8.62841 0.927675 8.79905 1.09476L16.0625 8.59702C16.29 8.83095 16.4038 9.09829 16.3753 9.39905Z" fill="white"/>
</svg>
