<svg width="18" height="14" viewBox="0 0 18 14" fill="none" xmlns="http://www.w3.org/2000/svg">
<path d="M2.25 1.9375C1.94062 1.9375 1.6875 2.19062 1.6875 2.5V3.27695L7.75195 8.25508C8.47969 8.85273 9.52383 8.85273 10.2516 8.25508L16.3125 3.27695V2.5C16.3125 2.19062 16.0594 1.9375 15.75 1.9375H2.25ZM1.6875 5.46016V11.5C1.6875 11.8094 1.94062 12.0625 2.25 12.0625H15.75C16.0594 12.0625 16.3125 11.8094 16.3125 11.5V5.46016L11.3203 9.55937C9.97031 10.6668 8.02617 10.6668 6.67969 9.55937L1.6875 5.46016ZM0 2.5C0 1.25898 1.00898 0.25 2.25 0.25H15.75C16.991 0.25 18 1.25898 18 2.5V11.5C18 12.741 16.991 13.75 15.75 13.75H2.25C1.00898 13.75 0 12.741 0 11.5V2.5Z" fill="white"/>
</svg>
